<svg xmlns="http://www.w3.org/2000/svg" xmlns:xlink="http://www.w3.org/1999/xlink" xmlns:lucid="lucid" width="1533.21" height="1044.23"><g transform="translate(4081 921)" lucid:page-tab-id="0_0"><path d="M-4500-1000h2000V500h-2000z" fill="#fff"/><path d="M-2927.58-523.84h358.8v303h-358.8z" stroke="#333" stroke-width="2" fill="#fff"/><path d="M-2927.58-437.97h358.8" stroke="#333" stroke-width="2" fill="none"/><use xlink:href="#a" transform="matrix(1,0,0,1,-2919.575757575758,-515.8408005781216) translate(98.76265432098769 23.355555555555565)"/><use xlink:href="#b" transform="matrix(1,0,0,1,-2919.575757575758,-515.8408005781216) translate(60.91820987654327 58.28888888888888)"/><use xlink:href="#c" transform="matrix(1,0,0,1,-2915.575757575758,-429.974133911455) translate(0 106.5111111111111)"/><use xlink:href="#d" transform="matrix(1,0,0,1,-2915.575757575758,-429.974133911455) translate(23.72839506172839 106.5111111111111)"/><use xlink:href="#e" transform="matrix(1,0,0,1,-2915.575757575758,-429.974133911455) translate(121.3975308641975 106.5111111111111)"/><path d="M-2748.18-526.34v-142.53" stroke="#333" stroke-width="3" fill="none"/><path d="M-2746.68-524.84h-3v-1.54h3z" stroke="#333" stroke-width=".05" fill="#333"/><path d="M-2748.18-697.88l14.85 14.85-14.85 15.15-14.85-15.15z" stroke="#333" stroke-width="3" fill="#fff"/><use xlink:href="#f" transform="matrix(1,0,0,1,-2786.385521885522,-700.7999999999998) translate(0 19.73333333333333)"/><path d="M-2905.15-900h313.94v199h-313.95z" stroke="#333" stroke-width="2" fill="#fff"/><path d="M-2905.15-849.07h313.94" stroke="#333" stroke-width="2" fill="none"/><use xlink:href="#g" transform="matrix(1,0,0,1,-2897.1515151515155,-892) translate(43.18919753086426 23.32222222222222)"/><use xlink:href="#c" transform="matrix(1,0,0,1,-2893.1515151515155,-841.0666666666667) translate(0 22.411111111111126)"/><use xlink:href="#h" transform="matrix(1,0,0,1,-2893.1515151515155,-841.0666666666667) translate(23.72839506172839 22.411111111111126)"/><use xlink:href="#c" transform="matrix(1,0,0,1,-2893.1515151515155,-841.0666666666667) translate(0 55.47777777777778)"/><use xlink:href="#i" transform="matrix(1,0,0,1,-2893.1515151515155,-841.0666666666667) translate(23.72839506172839 55.47777777777778)"/><use xlink:href="#c" transform="matrix(1,0,0,1,-2893.1515151515155,-841.0666666666667) translate(0 88.54444444444444)"/><use xlink:href="#j" transform="matrix(1,0,0,1,-2893.1515151515155,-841.0666666666667) translate(23.72839506172839 88.54444444444444)"/><use xlink:href="#c" transform="matrix(1,0,0,1,-2893.1515151515155,-841.0666666666667) translate(0 121.61111111111109)"/><use xlink:href="#k" transform="matrix(1,0,0,1,-2893.1515151515155,-841.0666666666667) translate(23.72839506172839 121.61111111111109)"/><path d="M-3620-85.77h358.8v188H-3620z" stroke="#333" stroke-width="2" fill="#fff"/><path d="M-3620 .1h358.8" stroke="#333" stroke-width="2" fill="none"/><use xlink:href="#a" transform="matrix(1,0,0,1,-3612,-77.77181208053685) translate(98.76265432098769 23.355555555555565)"/><use xlink:href="#l" transform="matrix(1,0,0,1,-3612,-77.77181208053685) translate(68.96419753086427 58.28888888888888)"/><use xlink:href="#c" transform="matrix(1,0,0,1,-3608,8.09485458612977) translate(0 22.044444444444437)"/><use xlink:href="#m" transform="matrix(1,0,0,1,-3608,8.09485458612977) translate(23.72839506172839 22.044444444444437)"/><use xlink:href="#n" transform="matrix(1,0,0,1,-3608,8.09485458612977) translate(0 55.11111111111109)"/><path d="M-3577.88-520h336.37v267h-336.38z" stroke="#333" stroke-width="2" fill="#fff"/><path d="M-3577.88-434.13h336.37" stroke="#333" stroke-width="2" fill="none"/><use xlink:href="#a" transform="matrix(1,0,0,1,-3569.8787878787884,-512) translate(87.76265432098769 23.355555555555565)"/><use xlink:href="#o" transform="matrix(1,0,0,1,-3569.8787878787884,-512) translate(24.971604938271696 58.28888888888888)"/><use xlink:href="#c" transform="matrix(1,0,0,1,-3565.8787878787884,-426.1333333333334) translate(0 22.377777777777794)"/><use xlink:href="#p" transform="matrix(1,0,0,1,-3565.8787878787884,-426.1333333333334) translate(23.72839506172839 22.377777777777794)"/><use xlink:href="#c" transform="matrix(1,0,0,1,-3565.8787878787884,-426.1333333333334) translate(0 55.44444444444445)"/><use xlink:href="#q" transform="matrix(1,0,0,1,-3565.8787878787884,-426.1333333333334) translate(23.72839506172839 55.44444444444445)"/><use xlink:href="#c" transform="matrix(1,0,0,1,-3565.8787878787884,-426.1333333333334) translate(0 88.5111111111111)"/><use xlink:href="#r" transform="matrix(1,0,0,1,-3565.8787878787884,-426.1333333333334) translate(23.72839506172839 88.5111111111111)"/><use xlink:href="#s" transform="matrix(1,0,0,1,-3565.8787878787884,-426.1333333333334) translate(0 121.57777777777775)"/><use xlink:href="#t" transform="matrix(1,0,0,1,-3565.8787878787884,-426.1333333333334) translate(23.72839506172839 121.57777777777775)"/><use xlink:href="#u" transform="matrix(1,0,0,1,-3565.8787878787884,-426.1333333333334) translate(0 154.6444444444444)"/><path d="M-3239-386.5h17.15m17.16 0h34.34m17.16 0h34.33m17.16 0h34.18m17.03 0h34.06m17.03 0h34.04m17.03 0h17.03" stroke="#333" stroke-width="3" fill="none"/><path d="M-3238.98-385h-1.53v-3h1.52z" stroke="#333" stroke-width=".05" fill="#333"/><path d="M-2948.74-376.32l17.22-10.18-17.22-10.18" stroke="#333" stroke-width="3" fill="none"/><use xlink:href="#v" transform="matrix(1,0,0,1,-3120.841751023569,-422.5) translate(0 21.33333333333333)"/><path d="M-3833.26-121.25h12.72m12.7 0h25.44m12.72 0h25.43m12.72 0h12.7l1.9.15 1.82.44 1.73.72 1.6.98 1.44 1.22 1.22 1.44.97 1.6.72 1.74.43 1.83.15 1.88v17.58m0 17.58v35.17m0 17.58v17.58l.15 1.88.44 1.84.72 1.74.97 1.6 1.23 1.43 1.43 1.24 1.6.98 1.74.72 1.84.44 1.88.15h11.85m11.85 0h23.7m11.84 0h11.85" stroke="#333" stroke-width="3" fill="none"/><path d="M-3833.22-119.75h-1.54v-3h1.54z" stroke="#333" stroke-width=".05" fill="#333"/><path d="M-3641.16 18.4l17.2-10.17-17.2-10.18" stroke="#333" stroke-width="3" fill="none"/><use xlink:href="#v" transform="matrix(1,0,0,1,-3787.41080579735,-10.99204001302861) translate(0 21.33333333333333)"/><path d="M-3833.26-157h12.72m12.7 0h25.44m12.72 0h25.43m12.72 0h12.7l1.9-.15 1.82-.44 1.73-.7 1.6-1 1.44-1.22 1.22-1.43.97-1.6.72-1.74.43-1.82.15-1.88v-13.7m0-13.7v-27.4m0-13.7v-27.4m0-13.7V-306m0-13.7v-27.4m0-13.7v-13.7l.15-1.88.44-1.83.72-1.75.97-1.6 1.23-1.44 1.43-1.2 1.6-1 1.74-.7 1.84-.45 1.88-.15h12.58m12.58 0h25.16m12.58 0h25.16m12.58 0h12.57" stroke="#333" stroke-width="3" fill="none"/><path d="M-3833.22-155.5h-1.54v-3h1.54z" stroke="#333" stroke-width=".05" fill="#333"/><path d="M-3599.04-376.32l17.2-10.18-17.2-10.18" stroke="#333" stroke-width="3" fill="none"/><g><use xlink:href="#v" transform="matrix(1,0,0,1,-3787.41080579735,-394.58060285341185) translate(0 21.33333333333333)"/></g><path d="M-3920.35-207.72a7.54 7.54 0 0 0 7.35 5.84h71.24a6 6 0 0 1 6 6v103.75a6 6 0 0 1-6 6H-4054a6 6 0 0 1-6-6v-129.75a6 6 0 0 1 6-6h123a7.54 7.54 0 0 1 7.35 5.85zm-139.65 5.84h141" stroke="#5e5e5e" stroke-width="2" fill="#fff"/><g><use xlink:href="#w" transform="matrix(1,0,0,1,-4052,-227.87470899996595) translate(0 23.1111111111111)"/></g><g><use xlink:href="#x" transform="matrix(1,0,0,1,-4048,-193.87470899996595) translate(63.7067901234568 55.77777777777778)"/></g><path d="M-2711.9-39.97a8.43 8.43 0 0 0 7.96 5.67h95.52a6 6 0 0 1 6 6V95.84a6 6 0 0 1-6 6h-279.52a6 6 0 0 1-6-6V-54.3a6 6 0 0 1 6-6h163a8.43 8.43 0 0 1 7.96 5.67zm-182.04 5.67h184" stroke="#5e5e5e" stroke-width="2" fill="#fff"/><g><use xlink:href="#y" transform="matrix(1,0,0,1,-2885.9393939393944,-60.30302068747119) translate(0 23.1111111111111)"/></g><g><use xlink:href="#z" transform="matrix(1,0,0,1,-2881.9393939393944,-26.30302068747119) translate(26.58950617283955 66.27777777777777)"/></g><path d="M-3258.7 55.46h15.03m15.05 0h30.08m15.05 0h30.1m15.04 0h30.08m15.05 0h30.08m15.05 0h30.1m15.03 0h30.1m15.03 0h30.1m15.03 0h15.03" stroke="#333" stroke-width="3" fill="none"/><path d="M-3258.67 56.96h-1.54v-3h1.53z" stroke="#333" stroke-width=".05" fill="#333"/><path d="M-2915.1 65.64l17.2-10.18-17.2-10.18" stroke="#333" stroke-width="3" fill="none"/><g><use xlink:href="#v" transform="matrix(1,0,0,1,-3211.296296296296,59.46410398902833) translate(0 21.33333333333333)"/></g><path d="M-2896.94-8.83l-11.4-10.62m-11.43-10.6l-22.83-21.25m-11.42-10.6l-22.83-21.24m-11.4-10.62L-3011.1-115m-11.4-10.6l-22.84-21.24m-11.42-10.62l-22.83-21.23m-11.4-10.6l-22.84-21.24m-11.42-10.6l-22.83-21.24m-11.4-10.62l-22.84-21.23m-11.4-10.62l-22.85-21.23m-11.4-10.62l-11.42-10.6M-2916.64-13.25l19.54 4.27-5.67-19.18" stroke="#333" stroke-width="3" fill="none"/><path d="M-3238.37-328.38l-2.04 2.2-.1-.1v-4.1z" stroke="#333" stroke-width=".05" fill="#333"/><g><use xlink:href="#v" transform="matrix(1,0,0,1,-3214.1376310062496,-240.26081063974868) translate(0 21.33333333333333)"/></g><path d="M-2930.63-295.92l-10.95 9.6m-10.95 9.57l-21.9 19.18m-10.94 9.58l-21.9 19.2m-10.95 9.58l-21.9 19.17m-10.94 9.6l-21.9 19.16m-10.95 9.6l-21.9 19.17m-10.95 9.6l-21.9 19.17m-10.95 9.58L-3171.5-85m-10.94 9.58l-21.9 19.18m-10.95 9.6l-21.9 19.16m-10.94 9.6l-10.94 9.58M-2937.04-276.78l6.25-19-19.65 3.68" stroke="#333" stroke-width="3" fill="none"/><path d="M-3258.07-7.2l-2.14 1.88v-4l.16-.14z" stroke="#333" stroke-width=".05" fill="#333"/><g><use xlink:href="#v" transform="matrix(1,0,0,1,-3188.47584342437,-74.2747666981567) translate(0 21.33333333333333)"/></g><defs><path fill="#333" d="M18-100v-36l175-74v27L42-118l151 64v27" id="A"/><path fill="#333" d="M100-194c62-1 85 37 85 99 1 63-27 99-86 99S16-35 15-95c0-66 28-99 85-99zM99-20c44 1 53-31 53-75 0-43-8-75-51-75s-53 32-53 75 10 74 51 75" id="B"/><path fill="#333" d="M115-194c53 0 69 39 70 98 0 66-23 100-70 100C84 3 66-7 56-30L54 0H23l1-261h32v101c10-23 28-34 59-34zm-8 174c40 0 45-34 45-75 0-40-5-75-45-74-42 0-51 32-51 76 0 43 10 73 51 73" id="C"/><path fill="#333" d="M24-231v-30h32v30H24zM-9 49c24 4 33-6 33-30v-209h32V24c2 40-23 58-65 49V49" id="D"/><path fill="#333" d="M100-194c63 0 86 42 84 106H49c0 40 14 67 53 68 26 1 43-12 49-29l28 8c-11 28-37 45-77 45C44 4 14-33 15-96c1-61 26-98 85-98zm52 81c6-60-76-77-97-28-3 7-6 17-6 28h103" id="E"/><path fill="#333" d="M96-169c-40 0-48 33-48 73s9 75 48 75c24 0 41-14 43-38l32 2c-6 37-31 61-74 61-59 0-76-41-82-99-10-93 101-131 147-64 4 7 5 14 7 22l-32 3c-4-21-16-35-41-35" id="F"/><path fill="#333" d="M59-47c-2 24 18 29 38 22v24C64 9 27 4 27-40v-127H5v-23h24l9-43h21v43h35v23H59v120" id="G"/><path fill="#333" d="M18-27v-27l151-64-151-65v-27l175 74v36" id="H"/><g id="a"><use transform="matrix(0.08086419753086414,0,0,0.08086419753086414,0,0)" xlink:href="#A"/><use transform="matrix(0.08086419753086414,0,0,0.08086419753086414,16.98148148148147,0)" xlink:href="#A"/><use transform="matrix(0.08086419753086414,0,0,0.08086419753086414,33.96296296296294,0)" xlink:href="#B"/><use transform="matrix(0.08086419753086414,0,0,0.08086419753086414,50.13580246913577,0)" xlink:href="#C"/><use transform="matrix(0.08086419753086414,0,0,0.08086419753086414,66.3086419753086,0)" xlink:href="#D"/><use transform="matrix(0.08086419753086414,0,0,0.08086419753086414,72.69691358024687,0)" xlink:href="#E"/><use transform="matrix(0.08086419753086414,0,0,0.08086419753086414,88.8697530864197,0)" xlink:href="#F"/><use transform="matrix(0.08086419753086414,0,0,0.08086419753086414,103.42530864197526,0)" xlink:href="#G"/><use transform="matrix(0.08086419753086414,0,0,0.08086419753086414,111.51172839506167,0)" xlink:href="#H"/><use transform="matrix(0.08086419753086414,0,0,0.08086419753086414,128.49320987654315,0)" xlink:href="#H"/></g><path fill="#333" d="M212-179c-10-28-35-45-73-45-59 0-87 40-87 99 0 60 29 101 89 101 43 0 62-24 78-52l27 14C228-24 195 4 139 4 59 4 22-46 18-125c-6-104 99-153 187-111 19 9 31 26 39 46" id="I"/><path fill="#333" d="M24 0v-261h32V0H24" id="J"/><path fill="#333" d="M24-231v-30h32v30H24zM24 0v-190h32V0H24" id="K"/><path fill="#333" d="M117-194c89-4 53 116 60 194h-32v-121c0-31-8-49-39-48C34-167 62-67 57 0H25l-1-190h30c1 10-1 24 2 32 11-22 29-35 61-36" id="L"/><g id="b"><use transform="matrix(0.08086419753086414,0,0,0.08086419753086414,0,0)" xlink:href="#I"/><use transform="matrix(0.08086419753086414,0,0,0.08086419753086414,20.943827160493814,0)" xlink:href="#J"/><use transform="matrix(0.08086419753086414,0,0,0.08086419753086414,27.33209876543208,0)" xlink:href="#K"/><use transform="matrix(0.08086419753086414,0,0,0.08086419753086414,33.72037037037035,0)" xlink:href="#E"/><use transform="matrix(0.08086419753086414,0,0,0.08086419753086414,49.893209876543175,0)" xlink:href="#L"/><use transform="matrix(0.08086419753086414,0,0,0.08086419753086414,66.066049382716,0)" xlink:href="#G"/><use transform="matrix(0.08086419753086414,0,0,0.08086419753086414,74.15246913580242,0)" xlink:href="#I"/><use transform="matrix(0.08086419753086414,0,0,0.08086419753086414,95.09629629629623,0)" xlink:href="#B"/><use transform="matrix(0.08086419753086414,0,0,0.08086419753086414,111.26913580246907,0)" xlink:href="#L"/><use transform="matrix(0.08086419753086414,0,0,0.08086419753086414,127.44197530864191,0)" xlink:href="#L"/><use transform="matrix(0.08086419753086414,0,0,0.08086419753086414,143.61481481481474,0)" xlink:href="#E"/><use transform="matrix(0.08086419753086414,0,0,0.08086419753086414,159.78765432098757,0)" xlink:href="#F"/><use transform="matrix(0.08086419753086414,0,0,0.08086419753086414,174.34320987654314,0)" xlink:href="#G"/><use transform="matrix(0.08086419753086414,0,0,0.08086419753086414,182.42962962962952,0)" xlink:href="#K"/><use transform="matrix(0.08086419753086414,0,0,0.08086419753086414,188.81790123456778,0)" xlink:href="#B"/><use transform="matrix(0.08086419753086414,0,0,0.08086419753086414,204.9907407407406,0)" xlink:href="#L"/></g><path d="M118-107v75H92v-75H18v-26h74v-75h26v75h74v26h-74" id="M"/><use transform="matrix(0.07654320987654319,0,0,0.07654320987654319,0,0)" xlink:href="#M" id="c"/><path d="M96-169c-40 0-48 33-48 73s9 75 48 75c24 0 41-14 43-38l32 2c-6 37-31 61-74 61-59 0-76-41-82-99-10-93 101-131 147-64 4 7 5 14 7 22l-32 3c-4-21-16-35-41-35" id="N"/><path d="M24 0v-261h32V0H24" id="O"/><path d="M24-231v-30h32v30H24zM24 0v-190h32V0H24" id="P"/><path d="M100-194c63 0 86 42 84 106H49c0 40 14 67 53 68 26 1 43-12 49-29l28 8c-11 28-37 45-77 45C44 4 14-33 15-96c1-61 26-98 85-98zm52 81c6-60-76-77-97-28-3 7-6 17-6 28h103" id="Q"/><path d="M117-194c89-4 53 116 60 194h-32v-121c0-31-8-49-39-48C34-167 62-67 57 0H25l-1-190h30c1 10-1 24 2 32 11-22 29-35 61-36" id="R"/><path d="M59-47c-2 24 18 29 38 22v24C64 9 27 4 27-40v-127H5v-23h24l9-43h21v43h35v23H59v120" id="S"/><path d="M87 75C49 33 22-17 22-94c0-76 28-126 65-167h31c-38 41-64 92-64 168S80 34 118 75H87" id="T"/><path d="M33-261c38 41 65 92 65 168S71 34 33 75H2C39 34 66-17 66-93S39-220 2-261h31" id="U"/><path d="M33-154v-36h34v36H33zM33 0v-36h34V0H33" id="V"/><g id="d"><use transform="matrix(0.07654320987654319,0,0,0.07654320987654319,0,0)" xlink:href="#N"/><use transform="matrix(0.07654320987654319,0,0,0.07654320987654319,13.777777777777773,0)" xlink:href="#O"/><use transform="matrix(0.07654320987654319,0,0,0.07654320987654319,19.824691358024687,0)" xlink:href="#P"/><use transform="matrix(0.07654320987654319,0,0,0.07654320987654319,25.8716049382716,0)" xlink:href="#Q"/><use transform="matrix(0.07654320987654319,0,0,0.07654320987654319,41.180246913580234,0)" xlink:href="#R"/><use transform="matrix(0.07654320987654319,0,0,0.07654320987654319,56.48888888888887,0)" xlink:href="#S"/><use transform="matrix(0.07654320987654319,0,0,0.07654320987654319,64.1432098765432,0)" xlink:href="#T"/><use transform="matrix(0.07654320987654319,0,0,0.07654320987654319,73.25185185185184,0)" xlink:href="#U"/><use transform="matrix(0.07654320987654319,0,0,0.07654320987654319,82.36049382716048,0)" xlink:href="#V"/></g><path d="M143 4C61 4 22-44 18-125c-5-107 100-154 193-111 17 8 29 25 37 43l-32 9c-13-25-37-40-76-40-61 0-88 39-88 99 0 61 29 100 91 101 35 0 62-11 79-27v-45h-74v-28h105v86C228-13 192 4 143 4" id="W"/><path d="M114-163C36-179 61-72 57 0H25l-1-190h30c1 12-1 29 2 39 6-27 23-49 58-41v29" id="X"/><path d="M141-36C126-15 110 5 73 4 37 3 15-17 15-53c-1-64 63-63 125-63 3-35-9-54-41-54-24 1-41 7-42 31l-33-3c5-37 33-52 76-52 45 0 72 20 72 64v82c-1 20 7 32 28 27v20c-31 9-61-2-59-35zM48-53c0 20 12 33 32 33 41-3 63-29 60-74-43 2-92-5-92 41" id="Y"/><path d="M115-194c55 1 70 41 70 98S169 2 115 4C84 4 66-9 55-30l1 105H24l-1-265h31l2 30c10-21 28-34 59-34zm-8 174c40 0 45-34 45-75s-6-73-45-74c-42 0-51 32-51 76 0 43 10 73 51 73" id="Z"/><path d="M106-169C34-169 62-67 57 0H25v-261h32l-1 103c12-21 28-36 61-36 89 0 53 116 60 194h-32v-121c2-32-8-49-39-48" id="aa"/><path d="M140-251c81 0 123 46 123 126C263-53 228-8 163 1c7 30 30 48 69 40v23c-55 16-95-15-103-61C56-3 17-48 17-125c0-80 42-126 123-126zm0 227c63 0 89-41 89-101s-29-99-89-99c-61 0-89 39-89 99S79-25 140-24" id="ab"/><path d="M30 0v-248h33v221h125V0H30" id="ac"/><path d="M212-179c-10-28-35-45-73-45-59 0-87 40-87 99 0 60 29 101 89 101 43 0 62-24 78-52l27 14C228-24 195 4 139 4 59 4 22-46 18-125c-6-104 99-153 187-111 19 9 31 26 39 46" id="ad"/><g id="e"><use transform="matrix(0.07654320987654319,0,0,0.07654320987654319,0,0)" xlink:href="#W"/><use transform="matrix(0.07654320987654319,0,0,0.07654320987654319,21.43209876543209,0)" xlink:href="#X"/><use transform="matrix(0.07654320987654319,0,0,0.07654320987654319,30.54074074074073,0)" xlink:href="#Y"/><use transform="matrix(0.07654320987654319,0,0,0.07654320987654319,45.84938271604937,0)" xlink:href="#Z"/><use transform="matrix(0.07654320987654319,0,0,0.07654320987654319,61.15802469135801,0)" xlink:href="#aa"/><use transform="matrix(0.07654320987654319,0,0,0.07654320987654319,76.46666666666664,0)" xlink:href="#ab"/><use transform="matrix(0.07654320987654319,0,0,0.07654320987654319,97.89876543209874,0)" xlink:href="#ac"/><use transform="matrix(0.07654320987654319,0,0,0.07654320987654319,113.20740740740736,0)" xlink:href="#ad"/><use transform="matrix(0.07654320987654319,0,0,0.07654320987654319,133.03209876543204,0)" xlink:href="#O"/><use transform="matrix(0.07654320987654319,0,0,0.07654320987654319,139.07901234567896,0)" xlink:href="#P"/><use transform="matrix(0.07654320987654319,0,0,0.07654320987654319,145.12592592592588,0)" xlink:href="#Q"/><use transform="matrix(0.07654320987654319,0,0,0.07654320987654319,160.43456790123452,0)" xlink:href="#R"/><use transform="matrix(0.07654320987654319,0,0,0.07654320987654319,175.74320987654315,0)" xlink:href="#S"/></g><path d="M27 0v-27h64v-190l-56 39v-29l58-41h29v221h61V0H27" id="ae"/><use transform="matrix(0.0685185185185185,0,0,0.0685185185185185,0,0)" xlink:href="#ae" id="f"/><path fill="#333" d="M30-248c118-7 216 8 213 122C240-48 200 0 122 0H30v-248zM63-27c89 8 146-16 146-99s-60-101-146-95v194" id="af"/><path fill="#333" d="M101-234c-31-9-42 10-38 44h38v23H63V0H32v-167H5v-23h27c-7-52 17-82 69-68v24" id="ag"/><path fill="#333" d="M141-36C126-15 110 5 73 4 37 3 15-17 15-53c-1-64 63-63 125-63 3-35-9-54-41-54-24 1-41 7-42 31l-33-3c5-37 33-52 76-52 45 0 72 20 72 64v82c-1 20 7 32 28 27v20c-31 9-61-2-59-35zM48-53c0 20 12 33 32 33 41-3 63-29 60-74-43 2-92-5-92 41" id="ah"/><path fill="#333" d="M84 4C-5 8 30-112 23-190h32v120c0 31 7 50 39 49 72-2 45-101 50-169h31l1 190h-30c-1-10 1-25-2-33-11 22-28 36-60 37" id="ai"/><path fill="#333" d="M143 4C61 4 22-44 18-125c-5-107 100-154 193-111 17 8 29 25 37 43l-32 9c-13-25-37-40-76-40-61 0-88 39-88 99 0 61 29 100 91 101 35 0 62-11 79-27v-45h-74v-28h105v86C228-13 192 4 143 4" id="aj"/><path fill="#333" d="M114-163C36-179 61-72 57 0H25l-1-190h30c1 12-1 29 2 39 6-27 23-49 58-41v29" id="ak"/><path fill="#333" d="M115-194c55 1 70 41 70 98S169 2 115 4C84 4 66-9 55-30l1 105H24l-1-265h31l2 30c10-21 28-34 59-34zm-8 174c40 0 45-34 45-75s-6-73-45-74c-42 0-51 32-51 76 0 43 10 73 51 73" id="al"/><path fill="#333" d="M106-169C34-169 62-67 57 0H25v-261h32l-1 103c12-21 28-36 61-36 89 0 53 116 60 194h-32v-121c2-32-8-49-39-48" id="am"/><path fill="#333" d="M140-251c81 0 123 46 123 126C263-53 228-8 163 1c7 30 30 48 69 40v23c-55 16-95-15-103-61C56-3 17-48 17-125c0-80 42-126 123-126zm0 227c63 0 89-41 89-101s-29-99-89-99c-61 0-89 39-89 99S79-25 140-24" id="an"/><path fill="#333" d="M30 0v-248h33v221h125V0H30" id="ao"/><g id="g"><use transform="matrix(0.08086419753086414,0,0,0.08086419753086414,0,0)" xlink:href="#af"/><use transform="matrix(0.08086419753086414,0,0,0.08086419753086414,20.943827160493814,0)" xlink:href="#E"/><use transform="matrix(0.08086419753086414,0,0,0.08086419753086414,37.116666666666646,0)" xlink:href="#ag"/><use transform="matrix(0.08086419753086414,0,0,0.08086419753086414,45.20308641975306,0)" xlink:href="#ah"/><use transform="matrix(0.08086419753086414,0,0,0.08086419753086414,61.37592592592589,0)" xlink:href="#ai"/><use transform="matrix(0.08086419753086414,0,0,0.08086419753086414,77.54876543209872,0)" xlink:href="#J"/><use transform="matrix(0.08086419753086414,0,0,0.08086419753086414,83.93703703703699,0)" xlink:href="#G"/><use transform="matrix(0.08086419753086414,0,0,0.08086419753086414,92.02345679012342,0)" xlink:href="#aj"/><use transform="matrix(0.08086419753086414,0,0,0.08086419753086414,114.66543209876538,0)" xlink:href="#ak"/><use transform="matrix(0.08086419753086414,0,0,0.08086419753086414,124.2882716049382,0)" xlink:href="#ah"/><use transform="matrix(0.08086419753086414,0,0,0.08086419753086414,140.46111111111102,0)" xlink:href="#al"/><use transform="matrix(0.08086419753086414,0,0,0.08086419753086414,156.63395061728386,0)" xlink:href="#am"/><use transform="matrix(0.08086419753086414,0,0,0.08086419753086414,172.80679012345672,0)" xlink:href="#an"/><use transform="matrix(0.08086419753086414,0,0,0.08086419753086414,195.44876543209864,0)" xlink:href="#ao"/></g><path d="M145-31C134-9 116 4 85 4 32 4 16-35 15-94c0-59 17-99 70-100 32-1 48 14 60 33 0-11-1-24 2-32h30l-1 268h-32zM93-21c41 0 51-33 51-76s-8-73-50-73c-40 0-46 35-46 75s5 74 45 74" id="ap"/><path d="M84 4C-5 8 30-112 23-190h32v120c0 31 7 50 39 49 72-2 45-101 50-169h31l1 190h-30c-1-10 1-25-2-33-11 22-28 36-60 37" id="aq"/><path d="M179-190L93 31C79 59 56 82 12 73V49c39 6 53-20 64-50L1-190h34L92-34l54-156h33" id="ar"/><g id="h"><use transform="matrix(0.07654320987654319,0,0,0.07654320987654319,0,0)" xlink:href="#ap"/><use transform="matrix(0.07654320987654319,0,0,0.07654320987654319,15.308641975308637,0)" xlink:href="#aq"/><use transform="matrix(0.07654320987654319,0,0,0.07654320987654319,30.617283950617274,0)" xlink:href="#Q"/><use transform="matrix(0.07654320987654319,0,0,0.07654320987654319,45.92592592592591,0)" xlink:href="#X"/><use transform="matrix(0.07654320987654319,0,0,0.07654320987654319,55.03456790123455,0)" xlink:href="#ar"/><use transform="matrix(0.07654320987654319,0,0,0.07654320987654319,68.81234567901232,0)" xlink:href="#T"/><use transform="matrix(0.07654320987654319,0,0,0.07654320987654319,77.92098765432097,0)" xlink:href="#U"/></g><path d="M210-169c-67 3-38 105-44 169h-31v-121c0-29-5-50-35-48C34-165 62-65 56 0H25l-1-190h30c1 10-1 24 2 32 10-44 99-50 107 0 11-21 27-35 58-36 85-2 47 119 55 194h-31v-121c0-29-5-49-35-48" id="as"/><path d="M100-194c62-1 85 37 85 99 1 63-27 99-86 99S16-35 15-95c0-66 28-99 85-99zM99-20c44 1 53-31 53-75 0-43-8-75-51-75s-53 32-53 75 10 74 51 75" id="at"/><g id="i"><use transform="matrix(0.07654320987654319,0,0,0.07654320987654319,0,0)" xlink:href="#as"/><use transform="matrix(0.07654320987654319,0,0,0.07654320987654319,22.88641975308641,0)" xlink:href="#aq"/><use transform="matrix(0.07654320987654319,0,0,0.07654320987654319,38.195061728395046,0)" xlink:href="#S"/><use transform="matrix(0.07654320987654319,0,0,0.07654320987654319,45.84938271604936,0)" xlink:href="#Y"/><use transform="matrix(0.07654320987654319,0,0,0.07654320987654319,61.158024691357994,0)" xlink:href="#S"/><use transform="matrix(0.07654320987654319,0,0,0.07654320987654319,68.81234567901232,0)" xlink:href="#P"/><use transform="matrix(0.07654320987654319,0,0,0.07654320987654319,74.85925925925923,0)" xlink:href="#at"/><use transform="matrix(0.07654320987654319,0,0,0.07654320987654319,90.16790123456785,0)" xlink:href="#R"/><use transform="matrix(0.07654320987654319,0,0,0.07654320987654319,105.4765432098765,0)" xlink:href="#T"/><use transform="matrix(0.07654320987654319,0,0,0.07654320987654319,114.58518518518514,0)" xlink:href="#U"/></g><path d="M135-143c-3-34-86-38-87 0 15 53 115 12 119 90S17 21 10-45l28-5c4 36 97 45 98 0-10-56-113-15-118-90-4-57 82-63 122-42 12 7 21 19 24 35" id="au"/><path d="M115-194c53 0 69 39 70 98 0 66-23 100-70 100C84 3 66-7 56-30L54 0H23l1-261h32v101c10-23 28-34 59-34zm-8 174c40 0 45-34 45-75 0-40-5-75-45-74-42 0-51 32-51 76 0 43 10 73 51 73" id="av"/><g id="j"><use transform="matrix(0.07654320987654319,0,0,0.07654320987654319,0,0)" xlink:href="#au"/><use transform="matrix(0.07654320987654319,0,0,0.07654320987654319,13.777777777777773,0)" xlink:href="#aq"/><use transform="matrix(0.07654320987654319,0,0,0.07654320987654319,29.08641975308641,0)" xlink:href="#av"/><use transform="matrix(0.07654320987654319,0,0,0.07654320987654319,44.39506172839505,0)" xlink:href="#au"/><use transform="matrix(0.07654320987654319,0,0,0.07654320987654319,58.17283950617282,0)" xlink:href="#N"/><use transform="matrix(0.07654320987654319,0,0,0.07654320987654319,71.95061728395059,0)" xlink:href="#X"/><use transform="matrix(0.07654320987654319,0,0,0.07654320987654319,81.05925925925924,0)" xlink:href="#P"/><use transform="matrix(0.07654320987654319,0,0,0.07654320987654319,87.10617283950614,0)" xlink:href="#Z"/><use transform="matrix(0.07654320987654319,0,0,0.07654320987654319,102.41481481481479,0)" xlink:href="#S"/><use transform="matrix(0.07654320987654319,0,0,0.07654320987654319,110.06913580246909,0)" xlink:href="#P"/><use transform="matrix(0.07654320987654319,0,0,0.07654320987654319,116.116049382716,0)" xlink:href="#at"/><use transform="matrix(0.07654320987654319,0,0,0.07654320987654319,131.42469135802463,0)" xlink:href="#R"/><use transform="matrix(0.07654320987654319,0,0,0.07654320987654319,146.73333333333326,0)" xlink:href="#T"/><use transform="matrix(0.07654320987654319,0,0,0.07654320987654319,155.8419753086419,0)" xlink:href="#U"/></g><g id="k"><use transform="matrix(0.07654320987654319,0,0,0.07654320987654319,0,0)" xlink:href="#N"/><use transform="matrix(0.07654320987654319,0,0,0.07654320987654319,13.777777777777773,0)" xlink:href="#O"/><use transform="matrix(0.07654320987654319,0,0,0.07654320987654319,19.824691358024687,0)" xlink:href="#at"/><use transform="matrix(0.07654320987654319,0,0,0.07654320987654319,35.133333333333326,0)" xlink:href="#au"/><use transform="matrix(0.07654320987654319,0,0,0.07654320987654319,48.9111111111111,0)" xlink:href="#Q"/><use transform="matrix(0.07654320987654319,0,0,0.07654320987654319,64.21975308641973,0)" xlink:href="#T"/><use transform="matrix(0.07654320987654319,0,0,0.07654320987654319,73.32839506172837,0)" xlink:href="#U"/></g><path fill="#333" d="M30 0v-248h187v28H63v79h144v27H63v87h162V0H30" id="aw"/><path fill="#333" d="M108 0H70L1-190h34L89-25l56-165h34" id="ax"/><path fill="#333" d="M210-169c-67 3-38 105-44 169h-31v-121c0-29-5-50-35-48C34-165 62-65 56 0H25l-1-190h30c1 10-1 24 2 32 10-44 99-50 107 0 11-21 27-35 58-36 85-2 47 119 55 194h-31v-121c0-29-5-49-35-48" id="ay"/><path fill="#333" d="M205 0l-28-72H64L36 0H1l101-248h38L239 0h-34zm-38-99l-47-123c-12 45-31 82-46 123h93" id="az"/><g id="l"><use transform="matrix(0.08086419753086414,0,0,0.08086419753086414,0,0)" xlink:href="#aw"/><use transform="matrix(0.08086419753086414,0,0,0.08086419753086414,19.407407407407394,0)" xlink:href="#L"/><use transform="matrix(0.08086419753086414,0,0,0.08086419753086414,35.580246913580226,0)" xlink:href="#ax"/><use transform="matrix(0.08086419753086414,0,0,0.08086419753086414,50.13580246913577,0)" xlink:href="#K"/><use transform="matrix(0.08086419753086414,0,0,0.08086419753086414,56.524074074074036,0)" xlink:href="#ak"/><use transform="matrix(0.08086419753086414,0,0,0.08086419753086414,66.14691358024687,0)" xlink:href="#B"/><use transform="matrix(0.08086419753086414,0,0,0.08086419753086414,82.3197530864197,0)" xlink:href="#L"/><use transform="matrix(0.08086419753086414,0,0,0.08086419753086414,98.49259259259253,0)" xlink:href="#ay"/><use transform="matrix(0.08086419753086414,0,0,0.08086419753086414,122.67098765432091,0)" xlink:href="#E"/><use transform="matrix(0.08086419753086414,0,0,0.08086419753086414,138.84382716049373,0)" xlink:href="#L"/><use transform="matrix(0.08086419753086414,0,0,0.08086419753086414,155.01666666666657,0)" xlink:href="#G"/><use transform="matrix(0.08086419753086414,0,0,0.08086419753086414,163.10308641975297,0)" xlink:href="#az"/><use transform="matrix(0.08086419753086414,0,0,0.08086419753086414,182.51049382716036,0)" xlink:href="#al"/><use transform="matrix(0.08086419753086414,0,0,0.08086419753086414,198.6833333333332,0)" xlink:href="#K"/></g><path d="M85-194c31 0 48 13 60 33l-1-100h32l1 261h-30c-2-10 0-23-3-31C134-8 116 4 85 4 32 4 16-35 15-94c0-66 23-100 70-100zm9 24c-40 0-46 34-46 75 0 40 6 74 45 74 42 0 51-32 51-76 0-42-9-74-50-73" id="aA"/><g id="m"><use transform="matrix(0.07654320987654319,0,0,0.07654320987654319,0,0)" xlink:href="#R"/><use transform="matrix(0.07654320987654319,0,0,0.07654320987654319,15.308641975308637,0)" xlink:href="#at"/><use transform="matrix(0.07654320987654319,0,0,0.07654320987654319,30.617283950617274,0)" xlink:href="#aA"/><use transform="matrix(0.07654320987654319,0,0,0.07654320987654319,45.92592592592591,0)" xlink:href="#Q"/><use transform="matrix(0.07654320987654319,0,0,0.07654320987654319,61.23456790123455,0)" xlink:href="#ab"/><use transform="matrix(0.07654320987654319,0,0,0.07654320987654319,82.66666666666664,0)" xlink:href="#aq"/><use transform="matrix(0.07654320987654319,0,0,0.07654320987654319,97.97530864197527,0)" xlink:href="#Q"/><use transform="matrix(0.07654320987654319,0,0,0.07654320987654319,113.28395061728389,0)" xlink:href="#X"/><use transform="matrix(0.07654320987654319,0,0,0.07654320987654319,122.39259259259255,0)" xlink:href="#ar"/><use transform="matrix(0.07654320987654319,0,0,0.07654320987654319,136.17037037037034,0)" xlink:href="#T"/><use transform="matrix(0.07654320987654319,0,0,0.07654320987654319,145.27901234567898,0)" xlink:href="#U"/></g><path d="M108 0H70L1-190h34L89-25l56-165h34" id="aB"/><path d="M185-189c-5-48-123-54-124 2 14 75 158 14 163 119 3 78-121 87-175 55-17-10-28-26-33-46l33-7c5 56 141 63 141-1 0-78-155-14-162-118-5-82 145-84 179-34 5 7 8 16 11 25" id="aC"/><g id="n"><use transform="matrix(0.07654320987654319,0,0,0.07654320987654319,0,0)" xlink:href="#M"/><use transform="matrix(0.07654320987654319,0,0,0.07654320987654319,16.07407407407407,0)" xlink:href="#Q"/><use transform="matrix(0.07654320987654319,0,0,0.07654320987654319,31.382716049382708,0)" xlink:href="#R"/><use transform="matrix(0.07654320987654319,0,0,0.07654320987654319,46.69135802469135,0)" xlink:href="#aB"/><use transform="matrix(0.07654320987654319,0,0,0.07654320987654319,60.46913580246912,0)" xlink:href="#P"/><use transform="matrix(0.07654320987654319,0,0,0.07654320987654319,66.51604938271603,0)" xlink:href="#X"/><use transform="matrix(0.07654320987654319,0,0,0.07654320987654319,75.62469135802468,0)" xlink:href="#at"/><use transform="matrix(0.07654320987654319,0,0,0.07654320987654319,90.93333333333331,0)" xlink:href="#R"/><use transform="matrix(0.07654320987654319,0,0,0.07654320987654319,106.24197530864194,0)" xlink:href="#as"/><use transform="matrix(0.07654320987654319,0,0,0.07654320987654319,129.12839506172836,0)" xlink:href="#Q"/><use transform="matrix(0.07654320987654319,0,0,0.07654320987654319,144.437037037037,0)" xlink:href="#R"/><use transform="matrix(0.07654320987654319,0,0,0.07654320987654319,159.74567901234562,0)" xlink:href="#S"/><use transform="matrix(0.07654320987654319,0,0,0.07654320987654319,167.39999999999995,0)" xlink:href="#aC"/><use transform="matrix(0.07654320987654319,0,0,0.07654320987654319,185.7703703703703,0)" xlink:href="#aq"/><use transform="matrix(0.07654320987654319,0,0,0.07654320987654319,201.07901234567896,0)" xlink:href="#av"/><use transform="matrix(0.07654320987654319,0,0,0.07654320987654319,216.38765432098756,0)" xlink:href="#au"/><use transform="matrix(0.07654320987654319,0,0,0.07654320987654319,230.16543209876534,0)" xlink:href="#N"/><use transform="matrix(0.07654320987654319,0,0,0.07654320987654319,243.9432098765431,0)" xlink:href="#X"/><use transform="matrix(0.07654320987654319,0,0,0.07654320987654319,253.05185185185175,0)" xlink:href="#P"/><use transform="matrix(0.07654320987654319,0,0,0.07654320987654319,259.0987654320987,0)" xlink:href="#Z"/><use transform="matrix(0.07654320987654319,0,0,0.07654320987654319,274.40740740740733,0)" xlink:href="#S"/><use transform="matrix(0.07654320987654319,0,0,0.07654320987654319,282.06172839506166,0)" xlink:href="#P"/><use transform="matrix(0.07654320987654319,0,0,0.07654320987654319,288.10864197530856,0)" xlink:href="#at"/><use transform="matrix(0.07654320987654319,0,0,0.07654320987654319,303.4172839506172,0)" xlink:href="#R"/><use transform="matrix(0.07654320987654319,0,0,0.07654320987654319,318.7259259259259,0)" xlink:href="#T"/><use transform="matrix(0.07654320987654319,0,0,0.07654320987654319,327.8345679012345,0)" xlink:href="#U"/></g><path fill="#333" d="M185-189c-5-48-123-54-124 2 14 75 158 14 163 119 3 78-121 87-175 55-17-10-28-26-33-46l33-7c5 56 141 63 141-1 0-78-155-14-162-118-5-82 145-84 179-34 5 7 8 16 11 25" id="aD"/><g id="o"><use transform="matrix(0.08086419753086414,0,0,0.08086419753086414,0,0)" xlink:href="#aD"/><use transform="matrix(0.08086419753086414,0,0,0.08086419753086414,19.407407407407394,0)" xlink:href="#K"/><use transform="matrix(0.08086419753086414,0,0,0.08086419753086414,25.795679012345662,0)" xlink:href="#ay"/><use transform="matrix(0.08086419753086414,0,0,0.08086419753086414,49.97407407407404,0)" xlink:href="#ai"/><use transform="matrix(0.08086419753086414,0,0,0.08086419753086414,66.14691358024686,0)" xlink:href="#J"/><use transform="matrix(0.08086419753086414,0,0,0.08086419753086414,72.53518518518513,0)" xlink:href="#ah"/><use transform="matrix(0.08086419753086414,0,0,0.08086419753086414,88.70802469135796,0)" xlink:href="#G"/><use transform="matrix(0.08086419753086414,0,0,0.08086419753086414,96.79444444444438,0)" xlink:href="#K"/><use transform="matrix(0.08086419753086414,0,0,0.08086419753086414,103.18271604938265,0)" xlink:href="#B"/><use transform="matrix(0.08086419753086414,0,0,0.08086419753086414,119.35555555555547,0)" xlink:href="#L"/><use transform="matrix(0.08086419753086414,0,0,0.08086419753086414,135.5283950617283,0)" xlink:href="#I"/><use transform="matrix(0.08086419753086414,0,0,0.08086419753086414,156.47222222222211,0)" xlink:href="#B"/><use transform="matrix(0.08086419753086414,0,0,0.08086419753086414,172.64506172839495,0)" xlink:href="#L"/><use transform="matrix(0.08086419753086414,0,0,0.08086419753086414,188.81790123456778,0)" xlink:href="#G"/><use transform="matrix(0.08086419753086414,0,0,0.08086419753086414,196.9043209876542,0)" xlink:href="#ak"/><use transform="matrix(0.08086419753086414,0,0,0.08086419753086414,206.527160493827,0)" xlink:href="#B"/><use transform="matrix(0.08086419753086414,0,0,0.08086419753086414,222.69999999999985,0)" xlink:href="#J"/><use transform="matrix(0.08086419753086414,0,0,0.08086419753086414,229.08827160493811,0)" xlink:href="#az"/><use transform="matrix(0.08086419753086414,0,0,0.08086419753086414,248.4956790123455,0)" xlink:href="#al"/><use transform="matrix(0.08086419753086414,0,0,0.08086419753086414,264.66851851851834,0)" xlink:href="#K"/></g><path d="M177-190C167-65 218 103 67 71c-23-6-38-20-44-43l32-5c15 47 100 32 89-28v-30C133-14 115 1 83 1 29 1 15-40 15-95c0-56 16-97 71-98 29-1 48 16 59 35 1-10 0-23 2-32h30zM94-22c36 0 50-32 50-73 0-42-14-75-50-75-39 0-46 34-46 75s6 73 46 73" id="aE"/><g id="p"><use transform="matrix(0.07654320987654319,0,0,0.07654320987654319,0,0)" xlink:href="#aE"/><use transform="matrix(0.07654320987654319,0,0,0.07654320987654319,15.308641975308637,0)" xlink:href="#Q"/><use transform="matrix(0.07654320987654319,0,0,0.07654320987654319,30.617283950617274,0)" xlink:href="#S"/><use transform="matrix(0.07654320987654319,0,0,0.07654320987654319,38.271604938271594,0)" xlink:href="#aC"/><use transform="matrix(0.07654320987654319,0,0,0.07654320987654319,56.64197530864196,0)" xlink:href="#P"/><use transform="matrix(0.07654320987654319,0,0,0.07654320987654319,62.68888888888887,0)" xlink:href="#as"/><use transform="matrix(0.07654320987654319,0,0,0.07654320987654319,85.57530864197528,0)" xlink:href="#aq"/><use transform="matrix(0.07654320987654319,0,0,0.07654320987654319,100.88395061728392,0)" xlink:href="#O"/><use transform="matrix(0.07654320987654319,0,0,0.07654320987654319,106.93086419753084,0)" xlink:href="#Y"/><use transform="matrix(0.07654320987654319,0,0,0.07654320987654319,122.23950617283946,0)" xlink:href="#S"/><use transform="matrix(0.07654320987654319,0,0,0.07654320987654319,129.89382716049377,0)" xlink:href="#P"/><use transform="matrix(0.07654320987654319,0,0,0.07654320987654319,135.9407407407407,0)" xlink:href="#at"/><use transform="matrix(0.07654320987654319,0,0,0.07654320987654319,151.24938271604933,0)" xlink:href="#R"/><use transform="matrix(0.07654320987654319,0,0,0.07654320987654319,166.55802469135799,0)" xlink:href="#aC"/><use transform="matrix(0.07654320987654319,0,0,0.07654320987654319,184.9283950617283,0)" xlink:href="#S"/><use transform="matrix(0.07654320987654319,0,0,0.07654320987654319,192.58271604938267,0)" xlink:href="#Y"/><use transform="matrix(0.07654320987654319,0,0,0.07654320987654319,207.89135802469127,0)" xlink:href="#S"/><use transform="matrix(0.07654320987654319,0,0,0.07654320987654319,215.5456790123456,0)" xlink:href="#aq"/><use transform="matrix(0.07654320987654319,0,0,0.07654320987654319,230.85432098765426,0)" xlink:href="#au"/><use transform="matrix(0.07654320987654319,0,0,0.07654320987654319,244.63209876543198,0)" xlink:href="#T"/><use transform="matrix(0.07654320987654319,0,0,0.07654320987654319,253.74074074074065,0)" xlink:href="#U"/></g><g id="q"><use transform="matrix(0.07654320987654319,0,0,0.07654320987654319,0,0)" xlink:href="#Z"/><use transform="matrix(0.07654320987654319,0,0,0.07654320987654319,15.308641975308637,0)" xlink:href="#Y"/><use transform="matrix(0.07654320987654319,0,0,0.07654320987654319,30.617283950617274,0)" xlink:href="#aq"/><use transform="matrix(0.07654320987654319,0,0,0.07654320987654319,45.92592592592591,0)" xlink:href="#au"/><use transform="matrix(0.07654320987654319,0,0,0.07654320987654319,59.70370370370369,0)" xlink:href="#Q"/><use transform="matrix(0.07654320987654319,0,0,0.07654320987654319,75.01234567901231,0)" xlink:href="#aC"/><use transform="matrix(0.07654320987654319,0,0,0.07654320987654319,93.3827160493827,0)" xlink:href="#P"/><use transform="matrix(0.07654320987654319,0,0,0.07654320987654319,99.42962962962959,0)" xlink:href="#as"/><use transform="matrix(0.07654320987654319,0,0,0.07654320987654319,122.31604938271599,0)" xlink:href="#aq"/><use transform="matrix(0.07654320987654319,0,0,0.07654320987654319,137.62469135802465,0)" xlink:href="#O"/><use transform="matrix(0.07654320987654319,0,0,0.07654320987654319,143.67160493827157,0)" xlink:href="#Y"/><use transform="matrix(0.07654320987654319,0,0,0.07654320987654319,158.9802469135802,0)" xlink:href="#S"/><use transform="matrix(0.07654320987654319,0,0,0.07654320987654319,166.6345679012345,0)" xlink:href="#P"/><use transform="matrix(0.07654320987654319,0,0,0.07654320987654319,172.68148148148146,0)" xlink:href="#at"/><use transform="matrix(0.07654320987654319,0,0,0.07654320987654319,187.9901234567901,0)" xlink:href="#R"/><use transform="matrix(0.07654320987654319,0,0,0.07654320987654319,203.2987654320987,0)" xlink:href="#T"/><use transform="matrix(0.07654320987654319,0,0,0.07654320987654319,212.4074074074074,0)" xlink:href="#U"/></g><g id="r"><use transform="matrix(0.07654320987654319,0,0,0.07654320987654319,0,0)" xlink:href="#Z"/><use transform="matrix(0.07654320987654319,0,0,0.07654320987654319,15.308641975308637,0)" xlink:href="#O"/><use transform="matrix(0.07654320987654319,0,0,0.07654320987654319,21.355555555555547,0)" xlink:href="#Y"/><use transform="matrix(0.07654320987654319,0,0,0.07654320987654319,36.664197530864186,0)" xlink:href="#ar"/><use transform="matrix(0.07654320987654319,0,0,0.07654320987654319,50.44197530864196,0)" xlink:href="#aC"/><use transform="matrix(0.07654320987654319,0,0,0.07654320987654319,68.81234567901232,0)" xlink:href="#P"/><use transform="matrix(0.07654320987654319,0,0,0.07654320987654319,74.85925925925923,0)" xlink:href="#as"/><use transform="matrix(0.07654320987654319,0,0,0.07654320987654319,97.74567901234565,0)" xlink:href="#aq"/><use transform="matrix(0.07654320987654319,0,0,0.07654320987654319,113.05432098765428,0)" xlink:href="#O"/><use transform="matrix(0.07654320987654319,0,0,0.07654320987654319,119.10123456790119,0)" xlink:href="#Y"/><use transform="matrix(0.07654320987654319,0,0,0.07654320987654319,134.40987654320983,0)" xlink:href="#S"/><use transform="matrix(0.07654320987654319,0,0,0.07654320987654319,142.06419753086416,0)" xlink:href="#P"/><use transform="matrix(0.07654320987654319,0,0,0.07654320987654319,148.1111111111111,0)" xlink:href="#at"/><use transform="matrix(0.07654320987654319,0,0,0.07654320987654319,163.4197530864197,0)" xlink:href="#R"/><use transform="matrix(0.07654320987654319,0,0,0.07654320987654319,178.72839506172835,0)" xlink:href="#T"/><use transform="matrix(0.07654320987654319,0,0,0.07654320987654319,187.837037037037,0)" xlink:href="#U"/></g><use transform="matrix(0.07654320987654319,0,0,0.07654320987654319,0,0)" xlink:href="#M" id="s"/><g id="t"><use transform="matrix(0.07654320987654319,0,0,0.07654320987654319,0,0)" xlink:href="#S"/><use transform="matrix(0.07654320987654319,0,0,0.07654320987654319,7.654320987654319,0)" xlink:href="#Q"/><use transform="matrix(0.07654320987654319,0,0,0.07654320987654319,22.962962962962955,0)" xlink:href="#X"/><use transform="matrix(0.07654320987654319,0,0,0.07654320987654319,32.07160493827159,0)" xlink:href="#as"/><use transform="matrix(0.07654320987654319,0,0,0.07654320987654319,54.958024691358005,0)" xlink:href="#P"/><use transform="matrix(0.07654320987654319,0,0,0.07654320987654319,61.004938271604914,0)" xlink:href="#R"/><use transform="matrix(0.07654320987654319,0,0,0.07654320987654319,76.31358024691355,0)" xlink:href="#Y"/><use transform="matrix(0.07654320987654319,0,0,0.07654320987654319,91.62222222222218,0)" xlink:href="#S"/><use transform="matrix(0.07654320987654319,0,0,0.07654320987654319,99.2765432098765,0)" xlink:href="#Q"/><use transform="matrix(0.07654320987654319,0,0,0.07654320987654319,114.58518518518514,0)" xlink:href="#aC"/><use transform="matrix(0.07654320987654319,0,0,0.07654320987654319,132.9555555555555,0)" xlink:href="#P"/><use transform="matrix(0.07654320987654319,0,0,0.07654320987654319,139.00246913580241,0)" xlink:href="#as"/><use transform="matrix(0.07654320987654319,0,0,0.07654320987654319,161.88888888888883,0)" xlink:href="#aq"/><use transform="matrix(0.07654320987654319,0,0,0.07654320987654319,177.1975308641975,0)" xlink:href="#O"/><use transform="matrix(0.07654320987654319,0,0,0.07654320987654319,183.24444444444438,0)" xlink:href="#Y"/><use transform="matrix(0.07654320987654319,0,0,0.07654320987654319,198.55308641975301,0)" xlink:href="#S"/><use transform="matrix(0.07654320987654319,0,0,0.07654320987654319,206.20740740740735,0)" xlink:href="#P"/><use transform="matrix(0.07654320987654319,0,0,0.07654320987654319,212.25432098765427,0)" xlink:href="#at"/><use transform="matrix(0.07654320987654319,0,0,0.07654320987654319,227.5629629629629,0)" xlink:href="#R"/><use transform="matrix(0.07654320987654319,0,0,0.07654320987654319,242.87160493827153,0)" xlink:href="#T"/><use transform="matrix(0.07654320987654319,0,0,0.07654320987654319,251.98024691358017,0)" xlink:href="#U"/></g><path fill="#333" d="M156-25L96-89v-11l60-65h29v5l-59 66 60 64v5h-30zm-82 0L15-89v-11l59-65h29v5L44-94l59 64v5H74" id="aF"/><path fill="#333" d="M135-143c-3-34-86-38-87 0 15 53 115 12 119 90S17 21 10-45l28-5c4 36 97 45 98 0-10-56-113-15-118-90-4-57 82-63 122-42 12 7 21 19 24 35" id="aG"/><path fill="#333" d="M126-25H97v-5l59-64-59-66v-5h29l60 65v11zm-82 0H15v-5l59-64-59-66v-5h29l59 65v11" id="aH"/><g id="v"><use transform="matrix(0.07407407407407406,0,0,0.07407407407407406,0,0)" xlink:href="#aF"/><use transform="matrix(0.07407407407407406,0,0,0.07407407407407406,14.814814814814811,0)" xlink:href="#ai"/><use transform="matrix(0.07407407407407406,0,0,0.07407407407407406,29.629629629629623,0)" xlink:href="#aG"/><use transform="matrix(0.07407407407407406,0,0,0.07407407407407406,42.962962962962955,0)" xlink:href="#E"/><use transform="matrix(0.07407407407407406,0,0,0.07407407407407406,57.777777777777764,0)" xlink:href="#aH"/></g><path fill="#333" d="M232-93c-1 65-40 97-104 97C67 4 28-28 28-90v-158h33c8 89-33 224 67 224 102 0 64-133 71-224h33v155" id="aI"/><path fill="#333" d="M33 0v-248h34V0H33" id="aJ"/><g id="w"><use transform="matrix(0.08024691358024688,0,0,0.08024691358024688,0,0)" xlink:href="#aI"/><use transform="matrix(0.08024691358024688,0,0,0.08024691358024688,20.783950617283942,0)" xlink:href="#aJ"/></g><g id="x"><use transform="matrix(0.0802469135802469,0,0,0.0802469135802469,0,0)" xlink:href="#ad"/><use transform="matrix(0.0802469135802469,0,0,0.0802469135802469,20.783950617283946,0)" xlink:href="#O"/><use transform="matrix(0.0802469135802469,0,0,0.0802469135802469,27.123456790123452,0)" xlink:href="#P"/><use transform="matrix(0.0802469135802469,0,0,0.0802469135802469,33.462962962962955,0)" xlink:href="#Q"/><use transform="matrix(0.0802469135802469,0,0,0.0802469135802469,49.512345679012334,0)" xlink:href="#R"/><use transform="matrix(0.0802469135802469,0,0,0.0802469135802469,65.56172839506172,0)" xlink:href="#S"/></g><path fill="#333" d="M233-177c-1 41-23 64-60 70L243 0h-38l-65-103H63V0H30v-248c88 3 205-21 203 71zM63-129c60-2 137 13 137-47 0-61-80-42-137-45v92" id="aK"/><g id="y"><use transform="matrix(0.08024691358024688,0,0,0.08024691358024688,0,0)" xlink:href="#aK"/><use transform="matrix(0.08024691358024688,0,0,0.08024691358024688,20.783950617283942,0)" xlink:href="#E"/><use transform="matrix(0.08024691358024688,0,0,0.08024691358024688,36.833333333333314,0)" xlink:href="#aG"/><use transform="matrix(0.08024691358024688,0,0,0.08024691358024688,51.27777777777776,0)" xlink:href="#B"/><use transform="matrix(0.08024691358024688,0,0,0.08024691358024688,67.32716049382714,0)" xlink:href="#ai"/><use transform="matrix(0.08024691358024688,0,0,0.08024691358024688,83.37654320987652,0)" xlink:href="#ak"/><use transform="matrix(0.08024691358024688,0,0,0.08024691358024688,92.9259259259259,0)" xlink:href="#F"/><use transform="matrix(0.08024691358024688,0,0,0.08024691358024688,107.37037037037035,0)" xlink:href="#E"/><use transform="matrix(0.08024691358024688,0,0,0.08024691358024688,123.41975308641972,0)" xlink:href="#aG"/></g><path d="M240 0l2-218c-23 76-54 145-80 218h-23L58-218 59 0H30v-248h44l77 211c21-75 51-140 76-211h43V0h-30" id="aL"/><g id="z"><use transform="matrix(0.0802469135802469,0,0,0.0802469135802469,0,0)" xlink:href="#W"/><use transform="matrix(0.0802469135802469,0,0,0.0802469135802469,22.46913580246913,0)" xlink:href="#Q"/><use transform="matrix(0.0802469135802469,0,0,0.0802469135802469,38.518518518518505,0)" xlink:href="#R"/><use transform="matrix(0.0802469135802469,0,0,0.0802469135802469,54.56790123456789,0)" xlink:href="#Q"/><use transform="matrix(0.0802469135802469,0,0,0.0802469135802469,70.61728395061726,0)" xlink:href="#X"/><use transform="matrix(0.0802469135802469,0,0,0.0802469135802469,80.16666666666664,0)" xlink:href="#Y"/><use transform="matrix(0.0802469135802469,0,0,0.0802469135802469,96.21604938271602,0)" xlink:href="#S"/><use transform="matrix(0.0802469135802469,0,0,0.0802469135802469,104.2407407407407,0)" xlink:href="#Q"/><use transform="matrix(0.0802469135802469,0,0,0.0802469135802469,120.29012345679008,0)" xlink:href="#aA"/><use transform="matrix(0.0802469135802469,0,0,0.0802469135802469,136.33950617283946,0)" xlink:href="#aL"/><use transform="matrix(0.0802469135802469,0,0,0.0802469135802469,160.3333333333333,0)" xlink:href="#at"/><use transform="matrix(0.0802469135802469,0,0,0.0802469135802469,176.38271604938268,0)" xlink:href="#aA"/><use transform="matrix(0.0802469135802469,0,0,0.0802469135802469,192.43209876543204,0)" xlink:href="#Q"/><use transform="matrix(0.0802469135802469,0,0,0.0802469135802469,208.4814814814814,0)" xlink:href="#O"/></g></defs></g></svg>